<mxfile host="app.diagrams.net" modified="2021-03-23T17:36:13.693Z" agent="5.0 (Windows NT 10.0; Win64; x64) AppleWebKit/537.36 (KHTML, like Gecko) Chrome/89.0.4389.90 Safari/537.36 Edg/89.0.774.57" etag="xrHvmczBCOax0xlpnRgb" version="14.4.8" type="github">
  <diagram id="FGVHmhKpvSUOe_zjsRUQ" name="Page-1">
    <mxGraphModel dx="920" dy="568" grid="1" gridSize="10" guides="1" tooltips="1" connect="1" arrows="1" fold="1" page="1" pageScale="1" pageWidth="850" pageHeight="1100" math="0" shadow="0">
      <root>
        <mxCell id="0" />
        <mxCell id="1" parent="0" />
        <mxCell id="moyqgmGMF7BgcqPsG2F3-2" value="CUHK_Account" style="swimlane;fontStyle=1;align=center;verticalAlign=top;childLayout=stackLayout;horizontal=1;startSize=26;horizontalStack=0;resizeParent=1;resizeParentMax=0;resizeLast=0;collapsible=1;marginBottom=0;" vertex="1" parent="1">
          <mxGeometry x="80" y="240" width="160" height="68" as="geometry" />
        </mxCell>
        <mxCell id="moyqgmGMF7BgcqPsG2F3-3" value="+ account_id&#xa;+ student_name" style="text;strokeColor=none;fillColor=none;align=left;verticalAlign=top;spacingLeft=4;spacingRight=4;overflow=hidden;rotatable=0;points=[[0,0.5],[1,0.5]];portConstraint=eastwest;" vertex="1" parent="moyqgmGMF7BgcqPsG2F3-2">
          <mxGeometry y="26" width="160" height="34" as="geometry" />
        </mxCell>
        <mxCell id="moyqgmGMF7BgcqPsG2F3-4" value="" style="line;strokeWidth=1;fillColor=none;align=left;verticalAlign=middle;spacingTop=-1;spacingLeft=3;spacingRight=3;rotatable=0;labelPosition=right;points=[];portConstraint=eastwest;" vertex="1" parent="moyqgmGMF7BgcqPsG2F3-2">
          <mxGeometry y="60" width="160" height="8" as="geometry" />
        </mxCell>
        <mxCell id="moyqgmGMF7BgcqPsG2F3-11" style="rounded=0;orthogonalLoop=1;jettySize=auto;html=1;exitX=0.5;exitY=0;exitDx=0;exitDy=0;entryX=0.5;entryY=1;entryDx=0;entryDy=0;endArrow=block;endFill=0;" edge="1" parent="1" source="moyqgmGMF7BgcqPsG2F3-6" target="moyqgmGMF7BgcqPsG2F3-22">
          <mxGeometry relative="1" as="geometry">
            <mxPoint x="159.68000000000006" y="306.15599999999995" as="targetPoint" />
          </mxGeometry>
        </mxCell>
        <mxCell id="moyqgmGMF7BgcqPsG2F3-6" value="CSCI3100_Account" style="swimlane;fontStyle=1;align=center;verticalAlign=top;childLayout=stackLayout;horizontal=1;startSize=26;horizontalStack=0;resizeParent=1;resizeParentMax=0;resizeLast=0;collapsible=1;marginBottom=0;" vertex="1" parent="1">
          <mxGeometry x="80" y="380" width="160" height="160" as="geometry" />
        </mxCell>
        <mxCell id="moyqgmGMF7BgcqPsG2F3-7" value="+ coupon_balance" style="text;strokeColor=none;fillColor=none;align=left;verticalAlign=top;spacingLeft=4;spacingRight=4;overflow=hidden;rotatable=0;points=[[0,0.5],[1,0.5]];portConstraint=eastwest;" vertex="1" parent="moyqgmGMF7BgcqPsG2F3-6">
          <mxGeometry y="26" width="160" height="26" as="geometry" />
        </mxCell>
        <mxCell id="moyqgmGMF7BgcqPsG2F3-8" value="" style="line;strokeWidth=1;fillColor=none;align=left;verticalAlign=middle;spacingTop=-1;spacingLeft=3;spacingRight=3;rotatable=0;labelPosition=right;points=[];portConstraint=eastwest;" vertex="1" parent="moyqgmGMF7BgcqPsG2F3-6">
          <mxGeometry y="52" width="160" height="8" as="geometry" />
        </mxCell>
        <mxCell id="moyqgmGMF7BgcqPsG2F3-9" value="+ sign_in()&#xa;+ sign_out()&#xa;+ upload_problem()&#xa;+ delete_problem()&#xa;+ submit_coupon()&#xa;+ get_solution()" style="text;strokeColor=none;fillColor=none;align=left;verticalAlign=top;spacingLeft=4;spacingRight=4;overflow=hidden;rotatable=0;points=[[0,0.5],[1,0.5]];portConstraint=eastwest;" vertex="1" parent="moyqgmGMF7BgcqPsG2F3-6">
          <mxGeometry y="60" width="160" height="100" as="geometry" />
        </mxCell>
        <mxCell id="moyqgmGMF7BgcqPsG2F3-12" value="SuperBoard" style="swimlane;fontStyle=1;align=center;verticalAlign=top;childLayout=stackLayout;horizontal=1;startSize=26;horizontalStack=0;resizeParent=1;resizeParentMax=0;resizeLast=0;collapsible=1;marginBottom=0;" vertex="1" parent="1">
          <mxGeometry x="345" y="220" width="160" height="60" as="geometry" />
        </mxCell>
        <mxCell id="moyqgmGMF7BgcqPsG2F3-13" value="+ problem_list" style="text;strokeColor=none;fillColor=none;align=left;verticalAlign=top;spacingLeft=4;spacingRight=4;overflow=hidden;rotatable=0;points=[[0,0.5],[1,0.5]];portConstraint=eastwest;" vertex="1" parent="moyqgmGMF7BgcqPsG2F3-12">
          <mxGeometry y="26" width="160" height="26" as="geometry" />
        </mxCell>
        <mxCell id="moyqgmGMF7BgcqPsG2F3-14" value="" style="line;strokeWidth=1;fillColor=none;align=left;verticalAlign=middle;spacingTop=-1;spacingLeft=3;spacingRight=3;rotatable=0;labelPosition=right;points=[];portConstraint=eastwest;" vertex="1" parent="moyqgmGMF7BgcqPsG2F3-12">
          <mxGeometry y="52" width="160" height="8" as="geometry" />
        </mxCell>
        <mxCell id="moyqgmGMF7BgcqPsG2F3-21" style="edgeStyle=none;rounded=0;orthogonalLoop=1;jettySize=auto;html=1;exitX=0.5;exitY=0;exitDx=0;exitDy=0;endArrow=diamond;endFill=0;entryX=0.5;entryY=1;entryDx=0;entryDy=0;" edge="1" parent="1" source="moyqgmGMF7BgcqPsG2F3-16" target="moyqgmGMF7BgcqPsG2F3-12">
          <mxGeometry relative="1" as="geometry">
            <mxPoint x="485" y="330" as="targetPoint" />
          </mxGeometry>
        </mxCell>
        <mxCell id="moyqgmGMF7BgcqPsG2F3-16" value="Solver" style="swimlane;fontStyle=1;align=center;verticalAlign=top;childLayout=stackLayout;horizontal=1;startSize=26;horizontalStack=0;resizeParent=1;resizeParentMax=0;resizeLast=0;collapsible=1;marginBottom=0;" vertex="1" parent="1">
          <mxGeometry x="345" y="380" width="160" height="80" as="geometry" />
        </mxCell>
        <mxCell id="moyqgmGMF7BgcqPsG2F3-18" value="" style="line;strokeWidth=1;fillColor=none;align=left;verticalAlign=middle;spacingTop=-1;spacingLeft=3;spacingRight=3;rotatable=0;labelPosition=right;points=[];portConstraint=eastwest;" vertex="1" parent="moyqgmGMF7BgcqPsG2F3-16">
          <mxGeometry y="26" width="160" height="8" as="geometry" />
        </mxCell>
        <mxCell id="moyqgmGMF7BgcqPsG2F3-19" value="+ assign_coupon()&#xa;+ solve()" style="text;strokeColor=none;fillColor=none;align=left;verticalAlign=top;spacingLeft=4;spacingRight=4;overflow=hidden;rotatable=0;points=[[0,0.5],[1,0.5]];portConstraint=eastwest;" vertex="1" parent="moyqgmGMF7BgcqPsG2F3-16">
          <mxGeometry y="34" width="160" height="46" as="geometry" />
        </mxCell>
        <mxCell id="moyqgmGMF7BgcqPsG2F3-20" value="Sign In" style="edgeStyle=none;rounded=0;orthogonalLoop=1;jettySize=auto;html=1;exitX=1;exitY=0.5;exitDx=0;exitDy=0;entryX=0;entryY=0.5;entryDx=0;entryDy=0;endArrow=none;endFill=0;" edge="1" parent="1" source="moyqgmGMF7BgcqPsG2F3-7" target="moyqgmGMF7BgcqPsG2F3-13">
          <mxGeometry relative="1" as="geometry" />
        </mxCell>
        <mxCell id="moyqgmGMF7BgcqPsG2F3-22" value="Student" style="swimlane;fontStyle=1;align=center;verticalAlign=top;childLayout=stackLayout;horizontal=1;startSize=26;horizontalStack=0;resizeParent=1;resizeParentMax=0;resizeLast=0;collapsible=1;marginBottom=0;" vertex="1" parent="1">
          <mxGeometry x="80" y="330" width="160" height="34" as="geometry" />
        </mxCell>
        <mxCell id="moyqgmGMF7BgcqPsG2F3-24" value="" style="line;strokeWidth=1;fillColor=none;align=left;verticalAlign=middle;spacingTop=-1;spacingLeft=3;spacingRight=3;rotatable=0;labelPosition=right;points=[];portConstraint=eastwest;" vertex="1" parent="moyqgmGMF7BgcqPsG2F3-22">
          <mxGeometry y="26" width="160" height="8" as="geometry" />
        </mxCell>
        <mxCell id="moyqgmGMF7BgcqPsG2F3-32" value="Assign Coupon" style="edgeStyle=none;rounded=0;orthogonalLoop=1;jettySize=auto;html=1;exitX=0.5;exitY=0;exitDx=0;exitDy=0;entryX=0.498;entryY=1.012;entryDx=0;entryDy=0;entryPerimeter=0;endArrow=none;endFill=0;" edge="1" parent="1" source="moyqgmGMF7BgcqPsG2F3-26" target="moyqgmGMF7BgcqPsG2F3-19">
          <mxGeometry relative="1" as="geometry" />
        </mxCell>
        <mxCell id="moyqgmGMF7BgcqPsG2F3-26" value="Problem" style="swimlane;fontStyle=1;align=center;verticalAlign=top;childLayout=stackLayout;horizontal=1;startSize=26;horizontalStack=0;resizeParent=1;resizeParentMax=0;resizeLast=0;collapsible=1;marginBottom=0;" vertex="1" parent="1">
          <mxGeometry x="345" y="550" width="160" height="140" as="geometry" />
        </mxCell>
        <mxCell id="moyqgmGMF7BgcqPsG2F3-27" value="+ problem_id&#xa;+ problem_description&#xa;+ no_of_coupons&#xa;+ solution" style="text;strokeColor=none;fillColor=none;align=left;verticalAlign=top;spacingLeft=4;spacingRight=4;overflow=hidden;rotatable=0;points=[[0,0.5],[1,0.5]];portConstraint=eastwest;" vertex="1" parent="moyqgmGMF7BgcqPsG2F3-26">
          <mxGeometry y="26" width="160" height="64" as="geometry" />
        </mxCell>
        <mxCell id="moyqgmGMF7BgcqPsG2F3-28" value="" style="line;strokeWidth=1;fillColor=none;align=left;verticalAlign=middle;spacingTop=-1;spacingLeft=3;spacingRight=3;rotatable=0;labelPosition=right;points=[];portConstraint=eastwest;" vertex="1" parent="moyqgmGMF7BgcqPsG2F3-26">
          <mxGeometry y="90" width="160" height="10" as="geometry" />
        </mxCell>
        <mxCell id="moyqgmGMF7BgcqPsG2F3-29" value="+ update_solution()&#xa;+ update_coupons()" style="text;strokeColor=none;fillColor=none;align=left;verticalAlign=top;spacingLeft=4;spacingRight=4;overflow=hidden;rotatable=0;points=[[0,0.5],[1,0.5]];portConstraint=eastwest;" vertex="1" parent="moyqgmGMF7BgcqPsG2F3-26">
          <mxGeometry y="100" width="160" height="40" as="geometry" />
        </mxCell>
        <mxCell id="moyqgmGMF7BgcqPsG2F3-31" style="rounded=0;orthogonalLoop=1;jettySize=auto;html=1;exitX=0.5;exitY=0;exitDx=0;exitDy=0;entryX=0.5;entryY=1;entryDx=0;entryDy=0;endArrow=block;endFill=0;" edge="1" parent="1" source="moyqgmGMF7BgcqPsG2F3-22" target="moyqgmGMF7BgcqPsG2F3-2">
          <mxGeometry relative="1" as="geometry">
            <mxPoint x="170" y="390" as="sourcePoint" />
            <mxPoint x="159.68000000000006" y="145.06600000000003" as="targetPoint" />
          </mxGeometry>
        </mxCell>
        <mxCell id="moyqgmGMF7BgcqPsG2F3-33" value="Create/&lt;br&gt;Delete" style="edgeStyle=none;rounded=0;orthogonalLoop=1;jettySize=auto;html=1;exitX=1;exitY=0.5;exitDx=0;exitDy=0;entryX=0;entryY=0.5;entryDx=0;entryDy=0;endArrow=none;endFill=0;" edge="1" parent="1" source="moyqgmGMF7BgcqPsG2F3-7" target="moyqgmGMF7BgcqPsG2F3-27">
          <mxGeometry relative="1" as="geometry" />
        </mxCell>
        <mxCell id="moyqgmGMF7BgcqPsG2F3-34" value="Submit&lt;br&gt;Coupon" style="edgeStyle=none;rounded=0;orthogonalLoop=1;jettySize=auto;html=1;exitX=1;exitY=0.5;exitDx=0;exitDy=0;entryX=0;entryY=0.5;entryDx=0;entryDy=0;endArrow=none;endFill=0;" edge="1" parent="1" source="moyqgmGMF7BgcqPsG2F3-7">
          <mxGeometry relative="1" as="geometry">
            <mxPoint x="345" y="419" as="targetPoint" />
          </mxGeometry>
        </mxCell>
      </root>
    </mxGraphModel>
  </diagram>
</mxfile>
